<svg width="22" height="24" viewBox="0 0 22 24" fill="none" xmlns="http://www.w3.org/2000/svg">
<path d="M10.5469 0C4.73133 0 0 4.73133 0 10.5469C0 11.1914 0 16.1769 0 16.2656C0 17.4287 0.946266 18.375 2.10938 18.375H2.93344C3.22369 19.1933 4.00523 19.7812 4.92188 19.7812C6.08498 19.7812 7.03125 18.835 7.03125 17.6719V11.9531C7.03125 10.79 6.08498 9.84375 4.92188 9.84375C4.00523 9.84375 3.22369 10.4317 2.93344 11.25H2.10938C1.86286 11.25 1.62633 11.2929 1.40625 11.3709V10.5469C1.40625 5.50673 5.50673 1.40625 10.5469 1.40625C15.587 1.40625 19.6875 5.50673 19.6875 10.5469V11.3709C19.4674 11.2929 19.2309 11.25 18.9844 11.25H18.1603C17.8701 10.4317 17.0885 9.84375 16.1719 9.84375C15.0088 9.84375 14.0625 10.79 14.0625 11.9531V17.6719C14.0625 18.835 15.0088 19.7812 16.1719 19.7812C16.3847 19.7812 16.5902 19.7493 16.7841 19.6904C16.5211 20.5558 15.7159 21.1875 14.7656 21.1875H12.5353C12.2451 20.3692 11.4635 19.7812 10.5469 19.7812C9.38377 19.7812 8.4375 20.7275 8.4375 21.8906C8.4375 23.0537 9.38377 24 10.5469 24C11.4635 24 12.2451 23.4121 12.5353 22.5938H14.7656C16.7041 22.5938 18.2812 21.0166 18.2812 19.0781V18.375H18.9844C20.1475 18.375 21.0938 17.4287 21.0938 16.2656C21.0938 16.1782 21.0938 11.1908 21.0938 10.5469C21.0938 4.73133 16.3624 0 10.5469 0ZM4.21875 11.9531C4.21875 11.5654 4.53417 11.25 4.92188 11.25C5.30958 11.25 5.625 11.5654 5.625 11.9531V17.6719C5.625 18.0596 5.30958 18.375 4.92188 18.375C4.53417 18.375 4.21875 18.0596 4.21875 17.6719V11.9531ZM2.10938 12.6562H2.8125V16.9688H2.10938C1.72167 16.9688 1.40625 16.6533 1.40625 16.2656V13.3594C1.40625 12.9717 1.72167 12.6562 2.10938 12.6562ZM10.5469 22.5938C10.1592 22.5938 9.84375 22.2783 9.84375 21.8906C9.84375 21.5029 10.1592 21.1875 10.5469 21.1875C10.9346 21.1875 11.25 21.5029 11.25 21.8906C11.25 22.2783 10.9346 22.5938 10.5469 22.5938ZM16.875 17.6719C16.875 18.0596 16.5596 18.375 16.1719 18.375C15.7842 18.375 15.4688 18.0596 15.4688 17.6719V11.9531C15.4688 11.5654 15.7842 11.25 16.1719 11.25C16.5596 11.25 16.875 11.5654 16.875 11.9531V17.6719ZM19.6875 16.2656C19.6875 16.6533 19.3721 16.9688 18.9844 16.9688H18.2812V12.6562H18.9844C19.3721 12.6562 19.6875 12.9717 19.6875 13.3594V16.2656Z" fill="#FFA155"/>
</svg>
